<mxfile host="app.diagrams.net" agent="Mozilla/5.0 (Windows NT 10.0; Win64; x64) AppleWebKit/537.36 (KHTML, like Gecko) Chrome/134.0.0.0 Safari/537.36 Edg/134.0.0.0" version="26.1.0">
  <diagram name="Page-1" id="WEO8-mAdCXwa5Ez5ozm5">
    <mxGraphModel dx="1434" dy="752" grid="1" gridSize="10" guides="1" tooltips="1" connect="1" arrows="1" fold="1" page="1" pageScale="1" pageWidth="850" pageHeight="1100" math="0" shadow="0">
      <root>
        <mxCell id="0" />
        <mxCell id="1" parent="0" />
        <mxCell id="NCL_LWpw_1oKep3vXT-Y-2" value="" style="rounded=0;whiteSpace=wrap;html=1;align=center;" parent="1" vertex="1">
          <mxGeometry x="30" y="20" width="510" height="330" as="geometry" />
        </mxCell>
        <mxCell id="NCL_LWpw_1oKep3vXT-Y-4" value="Frontend (Web Browser)" style="text;html=1;align=center;verticalAlign=middle;whiteSpace=wrap;rounded=0;fontSize=24;" parent="1" vertex="1">
          <mxGeometry x="140" y="30" width="285" height="30" as="geometry" />
        </mxCell>
        <mxCell id="NCL_LWpw_1oKep3vXT-Y-20" style="edgeStyle=orthogonalEdgeStyle;rounded=0;orthogonalLoop=1;jettySize=auto;html=1;exitX=1;exitY=0.5;exitDx=0;exitDy=0;entryX=0;entryY=0.5;entryDx=0;entryDy=0;" parent="1" source="NCL_LWpw_1oKep3vXT-Y-6" target="NCL_LWpw_1oKep3vXT-Y-8" edge="1">
          <mxGeometry relative="1" as="geometry" />
        </mxCell>
        <mxCell id="NCL_LWpw_1oKep3vXT-Y-37" style="edgeStyle=orthogonalEdgeStyle;rounded=0;orthogonalLoop=1;jettySize=auto;html=1;exitX=0.5;exitY=1;exitDx=0;exitDy=0;entryX=0.5;entryY=0;entryDx=0;entryDy=0;" parent="1" source="NCL_LWpw_1oKep3vXT-Y-6" target="NCL_LWpw_1oKep3vXT-Y-36" edge="1">
          <mxGeometry relative="1" as="geometry" />
        </mxCell>
        <mxCell id="NCL_LWpw_1oKep3vXT-Y-6" value="index.html" style="rounded=1;whiteSpace=wrap;html=1;" parent="1" vertex="1">
          <mxGeometry x="70" y="85" width="120" height="60" as="geometry" />
        </mxCell>
        <mxCell id="NCL_LWpw_1oKep3vXT-Y-21" style="edgeStyle=orthogonalEdgeStyle;rounded=0;orthogonalLoop=1;jettySize=auto;html=1;exitX=0.5;exitY=1;exitDx=0;exitDy=0;entryX=0.5;entryY=0;entryDx=0;entryDy=0;" parent="1" source="NCL_LWpw_1oKep3vXT-Y-8" target="NCL_LWpw_1oKep3vXT-Y-9" edge="1">
          <mxGeometry relative="1" as="geometry" />
        </mxCell>
        <mxCell id="NCL_LWpw_1oKep3vXT-Y-35" style="edgeStyle=orthogonalEdgeStyle;rounded=0;orthogonalLoop=1;jettySize=auto;html=1;exitX=0.5;exitY=1;exitDx=0;exitDy=0;entryX=0.5;entryY=0;entryDx=0;entryDy=0;" parent="1" source="NCL_LWpw_1oKep3vXT-Y-8" target="NCL_LWpw_1oKep3vXT-Y-34" edge="1">
          <mxGeometry relative="1" as="geometry" />
        </mxCell>
        <mxCell id="NCL_LWpw_1oKep3vXT-Y-8" value="index.js" style="rounded=1;whiteSpace=wrap;html=1;" parent="1" vertex="1">
          <mxGeometry x="340" y="85" width="120" height="60" as="geometry" />
        </mxCell>
        <mxCell id="NCL_LWpw_1oKep3vXT-Y-9" value="plotly.js" style="ellipse;whiteSpace=wrap;html=1;" parent="1" vertex="1">
          <mxGeometry x="340" y="230" width="120" height="60" as="geometry" />
        </mxCell>
        <mxCell id="NCL_LWpw_1oKep3vXT-Y-11" value="" style="rounded=0;whiteSpace=wrap;html=1;" parent="1" vertex="1">
          <mxGeometry x="750" y="20" width="510" height="320" as="geometry" />
        </mxCell>
        <mxCell id="NCL_LWpw_1oKep3vXT-Y-13" value="Backend" style="text;html=1;align=center;verticalAlign=middle;whiteSpace=wrap;rounded=0;fontSize=24;" parent="1" vertex="1">
          <mxGeometry x="1000" y="30" width="60" height="30" as="geometry" />
        </mxCell>
        <mxCell id="NCL_LWpw_1oKep3vXT-Y-18" style="edgeStyle=orthogonalEdgeStyle;rounded=0;orthogonalLoop=1;jettySize=auto;html=1;exitX=0.5;exitY=1;exitDx=0;exitDy=0;entryX=0.5;entryY=0;entryDx=0;entryDy=0;" parent="1" source="NCL_LWpw_1oKep3vXT-Y-14" target="NCL_LWpw_1oKep3vXT-Y-15" edge="1">
          <mxGeometry relative="1" as="geometry" />
        </mxCell>
        <mxCell id="NCL_LWpw_1oKep3vXT-Y-19" style="edgeStyle=orthogonalEdgeStyle;rounded=0;orthogonalLoop=1;jettySize=auto;html=1;exitX=1;exitY=0.5;exitDx=0;exitDy=0;entryX=0;entryY=0.5;entryDx=0;entryDy=0;" parent="1" source="NCL_LWpw_1oKep3vXT-Y-14" target="NCL_LWpw_1oKep3vXT-Y-16" edge="1">
          <mxGeometry relative="1" as="geometry" />
        </mxCell>
        <mxCell id="NCL_LWpw_1oKep3vXT-Y-31" style="edgeStyle=orthogonalEdgeStyle;rounded=0;orthogonalLoop=1;jettySize=auto;html=1;exitX=0.5;exitY=1;exitDx=0;exitDy=0;entryX=0.5;entryY=0;entryDx=0;entryDy=0;startArrow=classic;startFill=1;" parent="1" source="NCL_LWpw_1oKep3vXT-Y-14" target="NCL_LWpw_1oKep3vXT-Y-30" edge="1">
          <mxGeometry relative="1" as="geometry" />
        </mxCell>
        <mxCell id="NCL_LWpw_1oKep3vXT-Y-14" value="server.js" style="rounded=1;whiteSpace=wrap;html=1;" parent="1" vertex="1">
          <mxGeometry x="800" y="85" width="120" height="60" as="geometry" />
        </mxCell>
        <mxCell id="NCL_LWpw_1oKep3vXT-Y-15" value="Node.js" style="ellipse;whiteSpace=wrap;html=1;" parent="1" vertex="1">
          <mxGeometry x="970" y="240" width="120" height="50" as="geometry" />
        </mxCell>
        <mxCell id="NCL_LWpw_1oKep3vXT-Y-16" value="Express.js" style="ellipse;whiteSpace=wrap;html=1;" parent="1" vertex="1">
          <mxGeometry x="1040" y="90" width="120" height="50" as="geometry" />
        </mxCell>
        <mxCell id="NCL_LWpw_1oKep3vXT-Y-17" style="edgeStyle=orthogonalEdgeStyle;rounded=0;orthogonalLoop=1;jettySize=auto;html=1;exitX=1;exitY=0.5;exitDx=0;exitDy=0;entryX=0;entryY=0.5;entryDx=0;entryDy=0;startArrow=classic;startFill=1;" parent="1" source="NCL_LWpw_1oKep3vXT-Y-8" target="NCL_LWpw_1oKep3vXT-Y-14" edge="1">
          <mxGeometry relative="1" as="geometry" />
        </mxCell>
        <mxCell id="NCL_LWpw_1oKep3vXT-Y-22" value="Uses" style="text;html=1;align=center;verticalAlign=middle;whiteSpace=wrap;rounded=0;" parent="1" vertex="1">
          <mxGeometry x="950" y="90" width="60" height="30" as="geometry" />
        </mxCell>
        <mxCell id="NCL_LWpw_1oKep3vXT-Y-23" value="Uses" style="text;html=1;align=center;verticalAlign=middle;whiteSpace=wrap;rounded=0;" parent="1" vertex="1">
          <mxGeometry x="920" y="165" width="60" height="30" as="geometry" />
        </mxCell>
        <mxCell id="NCL_LWpw_1oKep3vXT-Y-25" value="Uses" style="text;html=1;align=center;verticalAlign=middle;whiteSpace=wrap;rounded=0;" parent="1" vertex="1">
          <mxGeometry x="350" y="160" width="60" height="30" as="geometry" />
        </mxCell>
        <mxCell id="NCL_LWpw_1oKep3vXT-Y-26" value="Loads" style="text;html=1;align=center;verticalAlign=middle;whiteSpace=wrap;rounded=0;" parent="1" vertex="1">
          <mxGeometry x="230" y="90" width="60" height="30" as="geometry" />
        </mxCell>
        <mxCell id="NCL_LWpw_1oKep3vXT-Y-27" value="Client sends HTTP requests" style="text;html=1;align=center;verticalAlign=middle;whiteSpace=wrap;rounded=0;" parent="1" vertex="1">
          <mxGeometry x="560" y="85" width="170" height="30" as="geometry" />
        </mxCell>
        <mxCell id="NCL_LWpw_1oKep3vXT-Y-28" value="Server responds with data" style="text;html=1;align=center;verticalAlign=middle;whiteSpace=wrap;rounded=0;" parent="1" vertex="1">
          <mxGeometry x="560" y="115" width="170" height="30" as="geometry" />
        </mxCell>
        <mxCell id="NCL_LWpw_1oKep3vXT-Y-30" value="" style="shape=datastore;whiteSpace=wrap;html=1;" parent="1" vertex="1">
          <mxGeometry x="815" y="380" width="90" height="100" as="geometry" />
        </mxCell>
        <mxCell id="NCL_LWpw_1oKep3vXT-Y-32" value="Server queries for data" style="text;html=1;align=center;verticalAlign=middle;whiteSpace=wrap;rounded=0;" parent="1" vertex="1">
          <mxGeometry x="770" y="250" width="90" height="30" as="geometry" />
        </mxCell>
        <mxCell id="NCL_LWpw_1oKep3vXT-Y-33" value="MongoDB" style="text;html=1;align=center;verticalAlign=middle;whiteSpace=wrap;rounded=0;" parent="1" vertex="1">
          <mxGeometry x="830" y="430" width="60" height="30" as="geometry" />
        </mxCell>
        <mxCell id="NCL_LWpw_1oKep3vXT-Y-34" value="Tone.js" style="ellipse;whiteSpace=wrap;html=1;" parent="1" vertex="1">
          <mxGeometry x="210" y="230" width="120" height="60" as="geometry" />
        </mxCell>
        <mxCell id="NCL_LWpw_1oKep3vXT-Y-36" value="style.css" style="rounded=1;whiteSpace=wrap;html=1;" parent="1" vertex="1">
          <mxGeometry x="70" y="260" width="120" height="60" as="geometry" />
        </mxCell>
        <mxCell id="NCL_LWpw_1oKep3vXT-Y-38" value="Loads" style="text;html=1;align=center;verticalAlign=middle;whiteSpace=wrap;rounded=0;" parent="1" vertex="1">
          <mxGeometry x="80" y="180" width="60" height="30" as="geometry" />
        </mxCell>
      </root>
    </mxGraphModel>
  </diagram>
</mxfile>
